<svg xmlns="http://www.w3.org/2000/svg" aria-hidden="true" style="position:absolute;width:0;height:0;overflow:hidden">
  <defs>
    <symbol id="icon-minus-circle-svgrepo-com-3" viewBox="0 0 32 32">
      <path d="M16 1.667c7.916 0 14.333 6.417 14.333 14.333S23.916 30.333 16 30.333 1.667 23.916 1.667 16 8.084 1.667 16 1.667zM21.667 17a1 1 0 0 0 0-2H10.353a1 1 0 0 0 0 2h11.314z"/>
    </symbol>
    <symbol id="icon-minus-circle-svgrepo-com" viewBox="0 0 32 32">
      <path d="M22 17H10a1.001 1.001 0 0 1 0-2h12a1.001 1.001 0 0 1 0 2zM16 0C7.163 0 0 7.16 0 16s7.163 16 16 16 16-7.16 16-16S24.837 0 16 0z"/>
    </symbol>
    <symbol id="icon-minus-cirlce-svgrepo-com" viewBox="0 0 32 32">
      <path d="M16 2.667C8.653 2.667 2.667 8.654 2.667 16S8.654 29.333 16 29.333c7.347 0 13.333-5.987 13.333-13.333S23.346 2.667 16 2.667zM21.227 17H10.56c-.547 0-1-.453-1-1s.453-1 1-1h10.667c.547 0 1 .453 1 1s-.44 1-1 1z"/>
    </symbol>
    <symbol id="icon-plus-circle-svgrepo-com" viewBox="0 0 32 32">
      <path d="M22 17h-5v5a1.001 1.001 0 0 1-2 0v-5h-5a1.001 1.001 0 0 1 0-2h5v-5a1.001 1.001 0 0 1 2 0v5h5a1.001 1.001 0 0 1 0 2zM16 0C7.163 0 0 7.16 0 16s7.163 16 16 16 16-7.16 16-16S24.837 0 16 0z"/>
    </symbol>
    <symbol id="icon-plus-circle-svgrepo-com1" viewBox="0 0 32 32">
      <path d="M22 17h-5v5a1.001 1.001 0 0 1-2 0v-5h-5a1.001 1.001 0 0 1 0-2h5v-5a1.001 1.001 0 0 1 2 0v5h5a1.001 1.001 0 0 1 0 2zM16 0C7.163 0 0 7.16 0 16s7.163 16 16 16 16-7.16 16-16S24.837 0 16 0z"/>
    </symbol>
    <symbol id="icon-decrease-circle-svgrepo-com" viewBox="0 0 32 32">
      <path d="M16 2.667C8.636 2.667 2.667 8.637 2.667 16S8.637 29.333 16 29.333c7.364 0 13.333-5.97 13.333-13.333 0-7.364-5.97-13.333-13.333-13.333zm5.653 14.666H10.346a1.333 1.333 0 0 1 0-2.666h11.307a1.333 1.333 0 0 1 0 2.666z"/>
    </symbol>
    <symbol id="icon-about" viewBox="0 0 40 40">
      <path d="M15.479 5.15a.953.953 0 0 1 .755 0l11.734 5.074a.953.953 0 0 1 .574.873v8.526a.95.95 0 1 1-1.902 0v-7.078l-10.405 4.498a.953.953 0 0 1-.755 0L3.746 11.969a.951.951 0 0 1 0-1.745L15.48 5.15z"/>
      <path d="M7.136 14.818v6.337c0 .185.054.366.155.521l.001.002.001.002.003.005.01.014.031.044a7.896 7.896 0 0 0 .509.636c.351.397.875.92 1.579 1.442 1.411 1.047 3.548 2.09 6.432 2.09s5.021-1.043 6.433-2.09a10.43 10.43 0 0 0 1.579-1.442 8.208 8.208 0 0 0 .509-.636l.031-.044.013-.019.002-.004a.955.955 0 0 0 .155-.521v-6.337l-7.84 3.39a2.22 2.22 0 0 1-1.762 0l-7.84-3.39z"/>
    </symbol>
    <symbol id="icon-base" viewBox="0 0 32 32">
      <path d="M4.984 7.664a2.842 2.842 0 0 1 2.842-2.842h4.42a2.842 2.842 0 0 1 2.842 2.842v4.42a2.842 2.842 0 0 1-2.842 2.842h-4.42a2.842 2.842 0 0 1-2.842-2.842v-4.42zm0 11.997a2.842 2.842 0 0 1 2.842-2.842h4.42a2.842 2.842 0 0 1 2.842 2.842v4.42a2.842 2.842 0 0 1-2.842 2.842h-4.42a2.842 2.842 0 0 1-2.842-2.842v-4.42zM16.982 7.664a2.842 2.842 0 0 1 2.842-2.842h4.42a2.842 2.842 0 0 1 2.842 2.842v4.42a2.842 2.842 0 0 1-2.842 2.842h-4.42a2.842 2.842 0 0 1-2.842-2.842v-4.42zm0 11.997a2.842 2.842 0 0 1 2.842-2.842h4.42a2.842 2.842 0 0 1 2.842 2.842v4.42a2.842 2.842 0 0 1-2.842 2.842h-4.42a2.842 2.842 0 0 1-2.842-2.842v-4.42z"/>
    </symbol>
    <symbol id="icon-heart" viewBox="0 0 32 32">
      <path d="M15.802 6.313A7.57 7.57 0 0 0 5.097 17.018l8.845 8.846a2.96 2.96 0 0 0 4.186 0l8.845-8.845A7.57 7.57 0 0 0 16.268 6.314l-.233.233-.233-.233z"/>
    </symbol>
    <symbol id="icons-plus" viewBox="0 0 32 32">
      <path d="M16 3.2C8.931 3.2 3.2 8.931 3.2 16S8.931 28.8 16 28.8 28.8 23.069 28.8 16c0-7.069-5.731-12.8-12.8-12.8zm6.4 13.867h-5.333V22.4a1.067 1.067 0 1 1-2.134 0v-5.333H9.6a1.067 1.067 0 1 1 0-2.134h5.333V9.6a1.067 1.067 0 1 1 2.134 0v5.333H22.4a1.067 1.067 0 1 1 0 2.134z"/>
    </symbol>
    <symbol id="icon-students" viewBox="0 0 32 32">
      <path d="M11.831 5.482a4.864 4.864 0 1 0 0 9.729 4.864 4.864 0 0 0 0-9.729zm-9.147 19.81v-.036l.001-.083a9.996 9.996 0 0 1 .119-1.271c.127-.802.391-1.886.948-2.981.56-1.101 1.422-2.226 2.742-3.071 1.323-.848 3.047-1.378 5.266-1.378s3.943.53 5.266 1.378c1.32.846 2.182 1.97 2.742 3.071.557 1.096.821 2.18.948 2.981a9.645 9.645 0 0 1 .118 1.271l.001.083v.037a.988.988 0 0 1-.987.971H3.67a.988.988 0 0 1-.987-.97v-.002zm19.956.972c.104-.294.163-.608.169-.936v-.071l-.001-.119a11.34 11.34 0 0 0-.142-1.543c-.039-.249-.09-.522-.156-.815l-.021-.092c-.343-1.472-1.104-3.534-2.836-5.25a9.568 9.568 0 0 0-.996-.859c.518-.07 1.07-.107 1.656-.107 2.219 0 3.942.53 5.266 1.378 1.32.846 2.182 1.97 2.742 3.071.557 1.096.821 2.18.948 2.981a9.645 9.645 0 0 1 .118 1.271l.001.083v.037a.988.988 0 0 1-.987.971h-5.76zm-3.97-15.919a6.8 6.8 0 0 1-1.211 3.886 4.864 4.864 0 1 0-.001-7.774 6.806 6.806 0 0 1 1.211 3.887z"/>
    </symbol>
    <symbol id="icon-teory" viewBox="0 0 32 32">
      <path d="M3.537 15.948c0-6.902 5.595-12.498 12.498-12.498s12.498 5.595 12.498 12.498c0 6.902-5.595 12.498-12.498 12.498H4.524a.987.987 0 0 1-.698-1.684l2.701-2.701a12.452 12.452 0 0 1-2.99-8.112zm6.907-2.959a.987.987 0 0 0 0 1.974h11.182a.987.987 0 0 0 0-1.974H10.444zm-.987 4.933c0 .545.442.987.987.987h6.578a.987.987 0 0 0 0-1.974h-6.578a.987.987 0 0 0-.987.987z"/>
    </symbol>
    <symbol id="icon-logo" viewBox="0 0 32 32">
      <path d="M16 0C7.161 0 0 7.161 0 16s7.161 16 16 16 16-7.161 16-16S24.839 0 16 0zm1.733 7h-3.461L16 4l1.733 3zM16 29.656A13.625 13.625 0 0 1 4.933 24h22.139A13.642 13.642 0 0 1 16 29.656zm-10.194-8 5-8.656h10.389l5 8.656H5.806zM22.35 11H9.65L3.539 21.589A13.603 13.603 0 0 1 2.345 16c0-7.072 5.378-12.889 12.261-13.583L10.806 9H21.2l-3.806-6.583C24.283 3.111 29.655 8.928 29.655 16a13.62 13.62 0 0 1-1.194 5.589L22.35 11z"/>
    </symbol>
    <symbol id="icon-menu" viewBox="-2.5 0 19 19">
      <path fill="currentColor" d="M.789 4.836a1.03 1.03 0 0 1 1.03-1.029h10.363a1.03 1.03 0 1 1 0 2.059H1.818A1.03 1.03 0 0 1 .79 4.836zm12.422 4.347a1.03 1.03 0 0 1-1.03 1.029H1.819a1.03 1.03 0 0 1 0-2.059h10.364a1.03 1.03 0 0 1 1.029 1.03zm0 4.345a1.03 1.03 0 0 1-1.03 1.03H1.819a1.03 1.03 0 1 1 0-2.059h10.364a1.03 1.03 0 0 1 1.029 1.03z"/>
    </symbol>
    <symbol id="icon-left" viewBox="0 0 24 23">
      <path d="M.44 9.985a1.5 1.5 0 0 0 0 2.122l9.545 9.546a1.5 1.5 0 1 0 2.122-2.122L3.62 11.046l8.486-8.485A1.5 1.5 0 1 0 9.985.439L.44 9.985ZM24 11.045v-1.5H1.5v3H24v-1.5Z"/>
    </symbol>
    <symbol id="icon-right" viewBox="0 0 24 23">
      <path d="M23.56 12.107a1.5 1.5 0 0 0 0-2.122L14.016.44a1.5 1.5 0 1 0-2.122 2.122l8.486 8.485-8.486 8.485a1.5 1.5 0 1 0 2.122 2.122l9.546-9.546ZM0 11.046v1.5h22.5v-3H0v1.5Z"/>
    </symbol>
    <symbol id="icon-insta" fill="#000" viewBox="0 0 32 32">
      <path d="M20.445 5h-8.891A6.559 6.559 0 0 0 5 11.554v8.891A6.559 6.559 0 0 0 11.554 27h8.891a6.56 6.56 0 0 0 6.554-6.555v-8.891A6.557 6.557 0 0 0 20.445 5zm4.342 15.445a4.343 4.343 0 0 1-4.342 4.342h-8.891a4.341 4.341 0 0 1-4.341-4.342v-8.891a4.34 4.34 0 0 1 4.341-4.341h8.891a4.342 4.342 0 0 1 4.341 4.341l.001 8.891z"/>
      <path d="M16 10.312c-3.138 0-5.688 2.551-5.688 5.688s2.551 5.688 5.688 5.688 5.688-2.551 5.688-5.688-2.55-5.688-5.688-5.688zm0 9.163a3.475 3.475 0 1 1-.001-6.95 3.475 3.475 0 0 1 .001 6.95zm5.7-10.484a1.363 1.363 0 1 1-1.364 1.364c0-.752.51-1.364 1.364-1.364z"/>
    </symbol>
    <symbol id="instagram" viewBox="0 0 20 20">
        <path d="M19.98 5.88c-.046-1.063-.218-1.793-.464-2.426a4.881 4.881 0 0 0-1.157-1.774 4.922 4.922 0 0 0-1.77-1.153C15.952.281 15.226.11 14.163.063 13.093.012 12.753 0 10.037 0 7.322 0 6.982.012 5.915.059 4.852.105 4.122.278 3.49.523A4.879 4.879 0 0 0 1.715 1.68 4.923 4.923 0 0 0 .563 3.45C.316 4.087.145 4.813.098 5.876c-.051 1.07-.063 1.41-.063 4.126 0 2.715.012 3.055.059 4.122.047 1.063.219 1.793.465 2.426a4.932 4.932 0 0 0 1.156 1.774c.5.508 1.106.903 1.77 1.153.637.246 1.364.418 2.426.464 1.067.047 1.407.059 4.122.059s3.056-.012 4.122-.059c1.063-.046 1.793-.218 2.426-.464a5.116 5.116 0 0 0 2.927-2.927c.246-.637.418-1.364.465-2.426.047-1.067.058-1.407.058-4.122s-.004-3.055-.05-4.122zm-1.8 8.166c-.044.977-.208 1.504-.344 1.856a3.318 3.318 0 0 1-1.9 1.898c-.35.137-.882.301-1.855.344-1.055.047-1.371.059-4.04.059-2.668 0-2.989-.012-4.04-.059-.977-.043-1.504-.207-1.856-.344a3.076 3.076 0 0 1-1.148-.746 3.11 3.11 0 0 1-.747-1.149c-.136-.351-.3-.883-.343-1.855-.047-1.055-.059-1.372-.059-4.04 0-2.669.012-2.99.059-4.04.043-.977.207-1.504.343-1.856A3.04 3.04 0 0 1 3 2.965a3.104 3.104 0 0 1 1.15-.746c.35-.137.882-.3 1.855-.344 1.055-.047 1.372-.058 4.04-.058 2.672 0 2.989.011 4.04.058.977.043 1.504.207 1.856.344.433.16.828.414 1.148.746.332.325.586.715.747 1.15.136.35.3.882.343 1.855.047 1.055.059 1.371.059 4.04 0 2.668-.012 2.98-.059 4.036z"/>
        <path d="M10.037 4.864a5.139 5.139 0 1 0 5.138 5.138 5.139 5.139 0 0 0-5.138-5.138zm0 8.47a3.333 3.333 0 1 1 .001-6.666 3.333 3.333 0 0 1 0 6.667zm6.541-8.673a1.2 1.2 0 1 1-2.4 0 1.2 1.2 0 0 1 2.4 0z"/>
    </symbol>
    <!-- <symbol id="instagram" viewBox="0 0 20 20">
  <path fill="currentColor"
    d="M10 2C6 2 2 6 2 10s4 8 8 8 8-4 8-8-4-8-8-8z"/>
</symbol> -->
  </defs>
</svg>
