<svg width="75" height="75" viewBox="0 0 75 75" fill="none" xmlns="http://www.w3.org/2000/svg">
<path d="M8.29041 37.3771C8.29041 21.1998 21.4047 8.08545 37.582 8.08545C53.7593 8.08545 66.8737 21.1998 66.8737 37.3771C66.8737 53.5544 53.7593 66.6688 37.582 66.6688H10.6029C9.66761 66.6688 8.82438 66.1055 8.46643 65.2412C8.10852 64.3772 8.30635 63.3826 8.96772 62.7212L15.2989 56.3899C10.9307 51.2746 8.29041 44.6325 8.29041 37.3771ZM24.4778 30.4426C23.2007 30.4426 22.1653 31.4781 22.1653 32.7552C22.1653 34.0323 23.2007 35.0677 24.4778 35.0677H50.6862C51.9633 35.0677 52.9987 34.0323 52.9987 32.7552C52.9987 31.4781 51.9633 30.4426 50.6862 30.4426H24.4778ZM22.1653 42.0052C22.1653 43.2823 23.2007 44.3177 24.4778 44.3177H39.8945C41.1716 44.3177 42.207 43.2823 42.207 42.0052C42.207 40.7281 41.1716 39.6927 39.8945 39.6927H24.4778C23.2007 39.6927 22.1653 40.7281 22.1653 42.0052Z" fill="#000E21"/>
</svg>
