<svg width="56" height="56" viewBox="0 0 56 56" fill="none" xmlns="http://www.w3.org/2000/svg">
<path d="M27.0889 9.01274C27.5107 8.83039 27.9889 8.83039 28.4107 9.01274L48.9457 17.8927C49.5551 18.1563 49.9498 18.7569 49.9498 19.421V34.341C49.9498 35.2606 49.2043 36.0061 48.2848 36.0061C47.3653 36.0061 46.6198 35.2606 46.6198 34.341V21.955L28.4107 29.8271C27.9889 30.0096 27.5107 30.0096 27.0889 29.8271L6.55398 20.9472C5.94485 20.6835 5.5498 20.0848 5.5498 19.421C5.5498 18.7569 5.94441 18.1563 6.55396 17.8927L27.0889 9.01274Z" fill="white"/>
<path d="M12.4873 25.9316V37.0205C12.4873 37.3442 12.5816 37.6608 12.7587 37.9316C12.7587 37.9316 12.758 37.9305 12.7607 37.9345L12.763 37.9383L12.769 37.9472L12.7858 37.9723C12.7993 37.9922 12.8172 38.0182 12.8395 38.0502C12.8842 38.1141 12.9468 38.2011 13.0274 38.3081C13.1885 38.5221 13.4224 38.8167 13.7304 39.1646C14.3454 39.8595 15.2623 40.7746 16.4929 41.6876C18.9623 43.5198 22.7013 45.3455 27.7498 45.3455C32.7983 45.3455 36.5372 43.5198 39.0068 41.6876C40.2373 40.7746 41.1542 39.8595 41.7693 39.1646C42.0772 38.8167 42.311 38.5221 42.4722 38.3081C42.5528 38.2011 42.6154 38.1141 42.66 38.0502C42.6824 38.0182 42.7004 37.9922 42.7137 37.9723L42.7306 37.9472L42.7366 37.9383L42.7408 37.9316C42.918 37.6608 43.0123 37.3442 43.0123 37.0205V25.9316L29.2918 31.8648C28.3079 32.2904 27.1917 32.2904 26.2078 31.8648L12.4873 25.9316Z" fill="white"/>
</svg>
