<svg width="75" height="75" viewBox="0 0 75 75" fill="none" xmlns="http://www.w3.org/2000/svg">
<path d="M11.682 17.9616C11.682 14.2834 14.6638 11.3016 18.342 11.3016H28.702C32.3801 11.3016 35.362 14.2834 35.362 17.9616V28.3216C35.362 31.9997 32.3801 34.9816 28.702 34.9816H18.342C14.6638 34.9816 11.682 31.9997 11.682 28.3216V17.9616Z" fill="#000E21"/>
<path d="M11.682 46.0816C11.682 42.4035 14.6638 39.4216 18.342 39.4216H28.702C32.3801 39.4216 35.362 42.4035 35.362 46.0816V56.4416C35.362 60.1197 32.3801 63.1016 28.702 63.1016H18.342C14.6638 63.1016 11.682 60.1197 11.682 56.4416V46.0816Z" fill="#000E21"/>
<path d="M39.802 17.9616C39.802 14.2834 42.7839 11.3016 46.462 11.3016H56.822C60.5001 11.3016 63.482 14.2834 63.482 17.9616V28.3216C63.482 31.9997 60.5001 34.9816 56.822 34.9816H46.462C42.7839 34.9816 39.802 31.9997 39.802 28.3216V17.9616Z" fill="#000E21"/>
<path d="M39.802 46.0816C39.802 42.4035 42.7839 39.4216 46.462 39.4216H56.822C60.5001 39.4216 63.482 42.4035 63.482 46.0816V56.4416C63.482 60.1197 60.5001 63.1016 56.822 63.1016H46.462C42.7839 63.1016 39.802 60.1197 39.802 56.4416V46.0816Z" fill="#000E21"/>
</svg>
