<svg width="75" height="75" viewBox="0 0 75 75" fill="none" xmlns="http://www.w3.org/2000/svg">
<path d="M27.7288 12.848C21.4334 12.848 16.3299 17.9515 16.3299 24.247C16.3299 30.5424 21.4334 35.646 27.7288 35.646C34.0242 35.646 39.1277 30.5424 39.1277 24.247C39.1277 17.9515 34.0242 12.848 27.7288 12.848Z" fill="#000E21"/>
<path d="M6.29157 59.2781L6.29148 59.271L6.29126 59.2512L6.29099 59.192C6.29099 59.1436 6.29139 59.0783 6.2928 58.9969C6.2957 58.8341 6.30276 58.6062 6.31914 58.3228C6.35185 57.7567 6.4219 56.964 6.57114 56.0193C6.86788 54.1406 7.48707 51.5999 8.79305 49.0321C10.1053 46.4517 12.1264 43.8161 15.2199 41.8335C18.3218 39.8457 22.3622 38.6046 27.5622 38.6046C32.7621 38.6046 36.8025 39.8457 39.9044 41.8335C42.9979 43.8161 45.019 46.4517 46.3313 49.0321C47.6374 51.5999 48.2565 54.1406 48.5531 56.0193C48.7024 56.964 48.7724 57.7567 48.805 58.3228C48.8217 58.6062 48.8288 58.8341 48.8316 58.9969C48.8331 59.0783 48.8334 59.1436 48.8334 59.192L48.8331 59.2512L48.8328 59.271V59.2811C48.8109 60.5425 47.782 61.556 46.5206 61.556H8.60382C7.34231 61.556 6.31356 60.545 6.29166 59.2836C6.29166 59.2836 6.29169 59.2858 6.29157 59.2781Z" fill="#000E21"/>
<path d="M53.0632 61.556C53.3068 60.8678 53.4446 60.13 53.4582 59.3613L53.4585 59.3394L53.4591 59.3015L53.4594 59.2124V59.1939C53.4594 59.1186 53.4588 59.0252 53.457 58.9148C53.4529 58.6947 53.4437 58.4052 53.4237 58.0561C53.3833 57.3602 53.2991 56.4143 53.1227 55.2978C53.0305 54.715 52.9115 54.0734 52.7567 53.387C52.7413 53.3152 52.7253 53.2434 52.7083 53.1712C51.9036 49.7219 50.1211 44.8884 46.0603 40.8675C45.3367 40.1512 44.5588 39.4781 43.7253 38.855C44.9405 38.6909 46.2327 38.6046 47.6057 38.6046C52.8055 38.6046 56.8458 39.8457 59.9477 41.8335C63.0412 43.8161 65.0626 46.4517 66.3746 49.0321C67.6807 51.5999 68.2998 54.1406 68.5967 56.0193C68.746 56.964 68.816 57.7567 68.8486 58.3228C68.865 58.6062 68.8721 58.8341 68.8749 58.9969C68.8764 59.0783 68.8767 59.1436 68.8767 59.192L68.8764 59.2512V59.271L68.8761 59.2811C68.8542 60.5425 67.8253 61.556 66.5639 61.556H53.0632Z" fill="#000E21"/>
<path d="M43.7574 24.247C43.7574 27.6307 42.7088 30.7695 40.9183 33.356C42.8259 34.7935 45.1995 35.646 47.7722 35.646C54.0678 35.646 59.171 30.5424 59.171 24.247C59.171 17.9515 54.0678 12.848 47.7722 12.848C45.1995 12.848 42.8259 13.7003 40.9183 15.1379C42.7088 17.7243 43.7574 20.8631 43.7574 24.247Z" fill="#000E21"/>
</svg>
