<svg width="60" height="60" viewBox="0 0 60 60" fill="none" xmlns="http://www.w3.org/2000/svg">
<path d="M30 0C13.4271 0 0 13.4271 0 30C0 46.5729 13.4271 60 30 60C46.5729 60 60 46.5729 60 30C60 13.4271 46.5729 0 30 0ZM33.25 13.125H26.7604L30 7.5L33.25 13.125ZM30 55.6042C21.4583 55.6042 13.8958 51.4271 9.25 45H50.7604C46.1042 51.4271 38.5417 55.6042 30 55.6042ZM10.8854 40.6042L20.2604 24.375H39.7396L49.1146 40.6042H10.8854ZM41.9062 20.625H37.5729H22.4271H18.0938L6.63542 40.4792C5.19792 37.2813 4.39583 33.7292 4.39583 30C4.39583 16.7396 14.4792 5.83333 27.3854 4.53125L20.2604 16.875H24.5833H35.4167H39.75L32.6146 4.53125C45.5313 5.83333 55.6042 16.7396 55.6042 30C55.6042 33.7292 54.8021 37.2813 53.3646 40.4792L41.9062 20.625Z" fill="#005de0"/>
</svg>
